<svg xmlns="http://www.w3.org/2000/svg" viewBox="-1.30385e-7 4.24 101.4 15.76">
   <style>
        path {
            fill: black;
        }
        @media (prefers-color-scheme: dark) {
            path { fill: white; }
        }
    </style>
	<path d="M1.38 4.24 l-1.38 0 l0 0.64 l0.9 0 l0.44 0 c1.64 0 2.8734 0.47334 3.7 1.42 s1.24 2.18 1.24 3.7 l0 0.22 c0 1.4933 -0.41334 2.7134 -1.24 3.66 s-2.06 1.42 -3.7 1.42 l-0.64 0 l0 0 l-0.44 0 l-0.22 0 l-0.04 0 l0 4.7 l0.7 0 l0 -4.04 l0.68 0 c1.84 0 3.2366 -0.54334 4.19 -1.63 s1.43 -2.45 1.43 -4.09 l0 -0.26 c0 -1.64 -0.48334 -3.0066 -1.45 -4.1 s-2.3566 -1.64 -4.17 -1.64 z M9.6 4.24 l0 15.76 l0.52 0 l0 -15.76 l-0.52 0 z M19.7 4.58 l-0.000019531 11.56 c0 0.36 0.0066602 0.76 0.02 1.2 s0.02 0.66666 0.02 0.68 c-0.02666 -0.04 -0.12332 -0.25666 -0.28998 -0.65 s-0.33 -0.74334 -0.49 -1.05 l-0.28 -0.54 l-0.72 0 l2.2 4.22 l0.18 0 l0 -15.42 l-0.64 0 z M14.079999999999998 7.9399999999999995 l0.27998 0.54 l0.72 0 l-2.22 -4.24 l-0.14 0 l0 15.46 l0.62 0 l0 -11.6 c0 -0.33334 -0.0066602 -0.72334 -0.02 -1.17 s-0.02 -0.67666 -0.02 -0.69 c0.01334 0.04 0.10668 0.26 0.28002 0.66 s0.34 0.74666 0.5 1.04 z M27.619999999999997 20 l0.06 -0.64002 c-0.76 -0.08 -1.4033 -0.33666 -1.93 -0.77 s-0.95 -0.97 -1.27 -1.61 s-0.55 -1.3533 -0.69 -2.14 s-0.21 -1.5733 -0.21 -2.36 l0 -0.74 c0 -0.85334 0.08666 -1.69 0.26 -2.51 s0.44 -1.55 0.8 -2.19 s0.82334 -1.1567 1.39 -1.55 s1.2433 -0.59 2.03 -0.59 c0.68 0 1.2 0.08666 1.56 0.26 s0.68666 0.37334 0.98 0.6 l0.4 -0.5 c-0.38666 -0.30666 -0.79666 -0.55 -1.23 -0.73 s-1.0033 -0.27 -1.71 -0.27 c-1.5333 0 -2.77 0.68334 -3.71 2.05 s-1.41 3.1766 -1.41 5.43 l0 0.74 c0 2.16 0.41666 3.9134 1.25 5.26 s1.9767 2.1 3.43 2.26 z M28.72 19.999980469 c1.1333 -0.08 2.1134 -0.46 2.94 -1.14 l0.12 -0.1 l0 -5.34 l-3.94 0 l0 0.66 l3.3 0 l0 4.38 c-0.69334 0.52 -1.5133 0.82 -2.46 0.9 z M35.03999999999999 16.06 l0 -11.82 l-0.66 0 l0 11.82 l0.66 0 z M40.419999999999995 20 l0 -0.68 l-5.38 0 l0 -1.96 l-0.66 0 l0 2.64 l6.04 0 z M48.36 6.140000000000001 c0 0.08 0.23666 0.84334 0.71 2.29 s0.99 3.03 1.55 4.75 s1.3133 3.9934 2.26 6.82 l0.86 0 l-5.3 -15.76 l-0.16 0 l-5.26 15.76 l0.82 0 z M48 15.52 l-0.72 0 l1.2 4.48 l0.72 0 z M64.6 4.24 l-0.86 0 l-3.78 10.2 l0 5.56 l0.84 0 l0 -5.56 z M57.76 5.699999999999999 l-0.54 -1.46 l-0.88 0 l0.56 1.46 l0.86 0 z M69.27999999999999 11.02 l1.78 1.66 c0.56 0.52 1 1.0767 1.32 1.67 s0.48 1.19 0.48 1.79 l0 0.26 c0.01334 0.42666 -0.04 0.80666 -0.16 1.14 l0.74 0 c0.10666 -0.36 0.15332 -0.73334 0.13998 -1.12 l0 -0.28 c0 -0.72 -0.18334 -1.4067 -0.55 -2.06 s-0.87666 -1.2933 -1.53 -1.92 l-1.72 -1.62 c-0.54666 -0.52 -0.99666 -1.0067 -1.35 -1.46 s-0.53 -1.02 -0.53 -1.7 l0 -0.12 c0 -0.70666 0.19666 -1.2767 0.59 -1.71 s0.94334 -0.65 1.65 -0.65 c0.50666 0 0.92 0.07666 1.24 0.23 s0.64666 0.38334 0.98 0.69 l0.46 -0.52 c-0.37334 -0.34666 -0.75668 -0.60666 -1.15 -0.78 s-0.90334 -0.26 -1.53 -0.26 c-0.81334 0 -1.5033 0.26334 -2.07 0.79 s-0.85 1.2567 -0.85 2.19 l0 0.16 c0 0.76 0.19 1.41 0.57 1.95 s0.87666 1.0967 1.49 1.67 z M73.15999999999998 18.3 l-0.82002 0 c-0.46666 0.68 -1.2133 1.0267 -2.24 1.04 c-0.34666 0 -0.66 -0.04 -0.94 -0.12 l0 0.7 c0.28 0.05334 0.59334 0.08 0.94 0.08 c0.72 0 1.34 -0.14666 1.86 -0.44 s0.92 -0.71334 1.2 -1.26 z M83.17999999999999 20 c2.2134 0 4.1 -0.78 5.66 -2.34 c0.77334 -0.76 1.3567 -1.58 1.75 -2.46 s0.59 -1.88 0.59 -3 c0 -2.2266 -0.78 -4.1066 -2.34 -5.64 c-1.56 -1.52 -3.4866 -2.2866 -5.78 -2.3 c-1.4133 0.01334 -2.74 0.36668 -3.98 1.06 c-1.2133 0.70666 -2.18 1.6867 -2.9 2.94 l0.58 0.32 c0.65334 -1.16 1.54 -2.06 2.66 -2.7 c1.1067 -0.64 2.32 -0.96666 3.64 -0.98 c2.1334 0.01334 3.9066 0.72668 5.32 2.14 c1.4133 1.3867 2.1266 3.1066 2.14 5.16 c0 1.0267 -0.18 1.9433 -0.54 2.75 s-0.88666 1.5633 -1.58 2.27 c-1.4267 1.4267 -3.1666 2.14 -5.22 2.14 c-1.28 0 -2.44 -0.27334 -3.48 -0.82 l-0.3 0.58 c1.1333 0.58666 2.3934 0.88 3.78 0.88 z M100.76 4.58 l-0.000019531 11.56 c0 0.36 0.0066602 0.76 0.02 1.2 s0.02 0.66666 0.02 0.68 c-0.02666 -0.04 -0.12332 -0.25666 -0.28998 -0.65 s-0.33 -0.74334 -0.49 -1.05 l-0.28 -0.54 l-0.72 0 l2.2 4.22 l0.18 0 l0 -15.42 l-0.64 0 z M95.14 7.9399999999999995 l0.27998 0.54 l0.72 0 l-2.22 -4.24 l-0.14 0 l0 15.46 l0.62 0 l0 -11.6 c0 -0.33334 -0.0066602 -0.72334 -0.02 -1.17 s-0.02 -0.67666 -0.02 -0.69 c0.01334 0.04 0.10668 0.26 0.28002 0.66 s0.34 0.74666 0.5 1.04 z"  />
</svg>
